<?xml version="1.0" encoding="utf-8"?>
<!-- Generator: Adobe Illustrator 24.0.0, SVG Export Plug-In . SVG Version: 6.00 Build 0)  -->
<svg version="1.1" id="Layer_1" xmlns="http://www.w3.org/2000/svg" xmlns:xlink="http://www.w3.org/1999/xlink" x="0px" y="0px"
	 viewBox="0 0 1920 1080" style="enable-background:new 0 0 1920 1080;" xml:space="preserve">
<style type="text/css">
	.st0{fill:#CCCBCB;}
	.st1{fill:#FFFFFF;}
	.st2{fill:#231F20;}
	.st3{fill:#2B5116;}
	.st4{clip-path:url(#SVGID_2_);fill:#FFFFFF;}
	.st5{clip-path:url(#SVGID_2_);fill:none;stroke:#231F20;stroke-width:3;stroke-miterlimit:10;}
	.st6{fill:#F1F1F2;}
	.st7{clip-path:url(#SVGID_4_);fill:#CCCBCB;}
	.st8{clip-path:url(#SVGID_4_);fill:#FFFFFF;}
	.st9{clip-path:url(#SVGID_6_);fill:#FFFFFF;}
	.st10{clip-path:url(#SVGID_6_);fill:none;stroke:#231F20;stroke-width:3;stroke-miterlimit:10;}
	.st11{opacity:0.31;fill:#FFFFFF;}
	.st12{opacity:0.21;fill:#FFFFFF;}
	.st13{opacity:0.46;fill:#FFFFFF;}
	.st14{opacity:0.35;fill:#FFFFFF;}
</style>
<rect y="0" class="st0" width="1920" height="1063.6"/>
<g>
	<polygon class="st1" points="1716.1,908.4 1567.1,908.4 1641.6,755.6 	"/>
	<polygon class="st0" points="1650.6,776.4 1632.6,776.4 1634.9,771.8 1648.3,771.8 	"/>
	<polygon class="st0" points="1655.5,786.6 1627.7,786.6 1630,781.9 1653.2,781.9 	"/>
	<polygon class="st0" points="1660.5,796.7 1622.8,796.7 1625,792.1 1658.2,792.1 	"/>
	<polygon class="st0" points="1665.4,806.9 1617.8,806.9 1620.1,802.2 1663.1,802.2 	"/>
	<polygon class="st0" points="1670.4,817 1612.9,817 1615.1,812.4 1668.1,812.4 	"/>
	<polygon class="st0" points="1675.3,827.2 1607.9,827.2 1610.2,822.5 1673,822.5 	"/>
	<polygon class="st0" points="1680.3,837.3 1603,837.3 1605.2,832.7 1678,832.7 	"/>
	<polygon class="st0" points="1685.2,847.5 1598,847.5 1600.3,842.8 1682.9,842.8 	"/>
	<polygon class="st0" points="1690.2,857.6 1593,857.6 1595.3,853 1687.9,853 	"/>
	<polygon class="st0" points="1695.1,867.8 1588.1,867.8 1590.4,863.1 1692.8,863.1 	"/>
	<polygon class="st0" points="1700,877.9 1583.2,877.9 1585.4,873.3 1697.8,873.3 	"/>
	<polygon class="st0" points="1705,888.1 1578.2,888.1 1580.5,883.4 1702.7,883.4 	"/>
	<polygon class="st0" points="1710,898.2 1573.3,898.2 1575.5,893.6 1707.7,893.6 	"/>
	<polygon class="st1" points="1716.1,908.4 1710.1,908.4 1707.8,903.7 1641.6,767.9 1575.4,903.7 1573.1,908.4 1567.1,908.4 
		1641.6,755.6 	"/>
</g>
<g>
	<polygon class="st2" points="1515.3,648.5 1358.7,957.1 1671.9,957.1 	"/>
	<polygon class="st1" points="1539,814.1 1541.8,819.8 1544.5,825.6 1539,825.6 1533.5,825.6 1536.3,819.8 	"/>
	<polygon class="st1" points="1545.7,759.6 1548.5,765.3 1551.2,771 1545.7,771 1540.2,771 1543,765.3 	"/>
	<polygon class="st1" points="1466.1,778.6 1468.9,784.3 1471.6,790.1 1466.1,790.1 1460.6,790.1 1463.4,784.3 	"/>
	<polygon class="st1" points="1501.7,717.6 1504.4,723.3 1507.2,729 1501.7,729 1496.2,729 1498.9,723.3 	"/>
	<polygon class="st1" points="1490.1,840.6 1492.9,846.3 1495.6,852 1490.1,852 1484.7,852 1487.4,846.3 	"/>
	<polygon class="st1" points="1556.2,898.4 1553.4,892.6 1550.7,886.9 1556.2,886.9 1561.7,886.9 1558.9,892.6 	"/>
	<polygon class="st1" points="1487.3,811.1 1484.5,805.4 1481.8,799.6 1487.3,799.6 1492.8,799.6 1490,805.4 	"/>
	<polygon class="st1" points="1552,846.3 1548.6,839.1 1545.2,832 1552,832 1558.9,832 1555.5,839.1 	"/>
	<polygon class="st1" points="1505.8,884.6 1501.1,874.8 1496.4,865 1505.8,865 1515.3,865 1510.6,874.8 	"/>
	<polygon class="st1" points="1512.5,755.2 1507.8,745.3 1503.1,735.5 1512.5,735.5 1521.9,735.5 1517.2,745.3 	"/>
</g>
<title>Artboard 29</title>
<g>
	<polygon class="st2" points="1245.1,648.9 1366.1,897 1366.2,897.2 1366.2,913.4 1245.1,665.1 1151.1,857.9 1149.7,845.1 	"/>
	<polygon class="st2" points="1309,815.9 1306.5,821.1 1304,826.3 1309,826.3 1314,826.3 1311.5,821.1 	"/>
	<polygon class="st2" points="1220.9,795.1 1218.4,800.3 1215.9,805.5 1220.9,805.5 1225.9,805.5 1223.4,800.3 	"/>
	<polygon class="st2" points="1176.4,847.9 1173.9,853.1 1171.4,858.3 1176.4,858.3 1181.4,858.3 1178.9,853.1 	"/>
	<polygon class="st2" points="1214.8,745.2 1212.3,750.5 1209.8,755.7 1214.8,755.7 1219.8,755.7 1217.3,750.5 	"/>
	<polygon class="st2" points="1287.6,762.6 1285,767.9 1282.5,773.1 1287.6,773.1 1292.6,773.1 1290.1,767.9 	"/>
	<polygon class="st2" points="1255.1,706.8 1252.6,712.1 1250,717.3 1255.1,717.3 1260.1,717.3 1257.6,712.1 	"/>
	<polygon class="st2" points="1214.8,896 1217.3,890.8 1219.8,885.6 1214.8,885.6 1209.8,885.6 1212.3,890.8 	"/>
	<polygon class="st2" points="1181.4,873.4 1183.9,868.1 1186.4,862.9 1181.4,862.9 1176.4,862.9 1178.9,868.1 	"/>
	<polygon class="st2" points="1268.2,792.3 1270.8,787.1 1273.3,781.9 1268.2,781.9 1263.2,781.9 1265.7,787.1 	"/>
	<polygon class="st2" points="1209,824.5 1212.1,818 1215.3,811.4 1209,811.4 1202.7,811.4 1205.9,818 	"/>
	<polygon class="st2" points="1314.3,843.9 1316.4,839.3 1318.6,834.8 1314.3,834.8 1309.9,834.8 1312.1,839.3 	"/>
	<polygon class="st2" points="1245.2,741.2 1249.5,732.2 1253.8,723.2 1245.2,723.2 1236.5,723.2 1240.8,732.2 	"/>
</g>
<polygon class="st3" points="280,712.4 322.1,800.1 364.1,887.9 280,887.9 195.9,887.9 238,800.1 "/>
<g>
	<defs>
		<polygon id="SVGID_1_" points="1114.7,702.6 1194.2,868.4 1273.6,1034.1 1114.7,1034.1 955.9,1034.1 1035.3,868.4 		"/>
	</defs>
	<clipPath id="SVGID_2_">
		<use xlink:href="#SVGID_1_"  style="overflow:visible;"/>
	</clipPath>
	<polygon class="st4" points="1114.7,702.6 1194.2,868.4 1273.6,1034.1 1114.7,1034.1 955.9,1034.1 1035.3,868.4 	"/>
	<line class="st5" x1="1294.9" y1="1018.4" x2="901.6" y2="1018.4"/>
	<line class="st5" x1="1294.9" y1="998.7" x2="901.6" y2="998.7"/>
	<line class="st5" x1="1294.9" y1="978.9" x2="901.6" y2="978.9"/>
	<line class="st5" x1="1294.9" y1="959.2" x2="901.6" y2="959.2"/>
	<line class="st5" x1="1294.9" y1="939.4" x2="901.6" y2="939.4"/>
	<line class="st5" x1="1294.9" y1="919.7" x2="901.6" y2="919.7"/>
	<line class="st5" x1="1294.9" y1="899.9" x2="901.6" y2="899.9"/>
	<line class="st5" x1="1294.9" y1="880.2" x2="901.6" y2="880.2"/>
	<line class="st5" x1="1294.9" y1="860.4" x2="901.6" y2="860.4"/>
	<line class="st5" x1="1294.9" y1="840.7" x2="901.6" y2="840.7"/>
	<line class="st5" x1="1294.9" y1="820.9" x2="901.6" y2="820.9"/>
	<line class="st5" x1="1294.9" y1="801.2" x2="901.6" y2="801.2"/>
	<line class="st5" x1="1294.9" y1="781.4" x2="901.6" y2="781.4"/>
	<line class="st5" x1="1294.9" y1="761.7" x2="901.6" y2="761.7"/>
	<line class="st5" x1="1294.9" y1="741.9" x2="901.6" y2="741.9"/>
	<line class="st5" x1="1294.9" y1="722.2" x2="901.6" y2="722.2"/>
</g>
<g>
	<polygon class="st3" points="742.5,700.4 816.8,852.8 816.9,852.9 816.9,862.9 742.5,710.4 684.7,828.8 683.9,821 	"/>
	<polygon class="st3" points="781.7,803 780.2,806.2 778.6,809.4 781.7,809.4 784.8,809.4 783.2,806.2 	"/>
	<polygon class="st3" points="727.6,790.2 726.1,793.5 724.5,796.7 727.6,796.7 730.7,796.7 729.1,793.5 	"/>
	<polygon class="st3" points="700.3,822.7 698.7,825.9 697.2,829.1 700.3,829.1 703.3,829.1 701.8,825.9 	"/>
	<polygon class="st3" points="723.8,759.6 722.3,762.8 720.8,766 723.8,766 726.9,766 725.4,762.8 	"/>
	<polygon class="st3" points="768.5,770.3 767,773.5 765.5,776.7 768.5,776.7 771.6,776.7 770.1,773.5 	"/>
	<polygon class="st3" points="748.6,736 747,739.2 745.5,742.5 748.6,742.5 751.7,742.5 750.1,739.2 	"/>
	<polygon class="st3" points="723.8,852.2 725.4,849 726.9,845.8 723.8,845.8 720.8,845.8 722.3,849 	"/>
	<polygon class="st3" points="703.3,838.3 704.9,835.1 706.4,831.9 703.3,831.9 700.3,831.9 701.8,835.1 	"/>
	<polygon class="st3" points="756.7,788.5 758.2,785.3 759.8,782.1 756.7,782.1 753.6,782.1 755.1,785.3 	"/>
	<polygon class="st3" points="720.3,808.3 722.2,804.3 724.1,800.3 720.3,800.3 716.5,800.3 718.4,804.3 	"/>
	<polygon class="st3" points="784.9,820.2 786.3,817.4 787.6,814.6 784.9,814.6 782.3,814.6 783.6,817.4 	"/>
	<polygon class="st3" points="742.5,757.1 745.2,751.6 747.8,746.1 742.5,746.1 737.2,746.1 739.9,751.6 	"/>
</g>
<path class="st6" d="M1920,861.6V1080h-819.9l-48.2-24.3c98.7-38.9,196.4-70.4,290.6-95.8C1564.6,899.8,1767.6,873.1,1920,861.6z"/>
<g>
	<polygon class="st3" points="1920,869.6 1920,886.1 1811.3,663.2 1715.6,859.5 1714.1,846.4 1811.3,646.7 	"/>
	<polygon class="st3" points="1876.3,816.6 1873.7,822 1871.2,827.3 1876.3,827.3 1881.4,827.3 1878.8,822 	"/>
	<polygon class="st3" points="1786.6,795.5 1784.1,800.8 1781.5,806.1 1786.6,806.1 1791.7,806.1 1789.2,800.8 	"/>
	<polygon class="st3" points="1741.3,849.2 1738.8,854.6 1736.2,859.9 1741.3,859.9 1746.4,859.9 1743.9,854.6 	"/>
	<polygon class="st3" points="1780.4,744.8 1777.8,750.1 1775.3,755.4 1780.4,755.4 1785.5,755.4 1782.9,750.1 	"/>
	<polygon class="st3" points="1854.5,762.5 1851.9,767.8 1849.4,773.1 1854.5,773.1 1859.6,773.1 1857,767.8 	"/>
	<polygon class="st3" points="1821.4,705.6 1818.8,711 1816.3,716.3 1821.4,716.3 1826.5,716.3 1824,711 	"/>
	<polygon class="st3" points="1780.4,898.2 1782.9,892.9 1785.5,887.6 1780.4,887.6 1775.3,887.6 1777.8,892.9 	"/>
	<polygon class="st3" points="1746.4,875.2 1749,869.8 1751.5,864.5 1746.4,864.5 1741.3,864.5 1743.9,869.8 	"/>
	<polygon class="st3" points="1834.8,792.7 1837.4,787.3 1839.9,782 1834.8,782 1829.7,782 1832.3,787.3 	"/>
	<polygon class="st3" points="1774.5,825.4 1777.7,818.8 1780.9,812.1 1774.5,812.1 1768.2,812.1 1771.3,818.8 	"/>
	<polygon class="st3" points="1881.7,845.1 1883.9,840.5 1886.1,835.9 1881.7,835.9 1877.2,835.9 1879.4,840.5 	"/>
	<polygon class="st3" points="1811.3,740.6 1815.7,731.5 1820.1,722.3 1811.3,722.3 1802.5,722.3 1806.9,731.5 	"/>
</g>
<g>
	<polygon class="st2" points="403,646.3 274.9,898.7 531.1,898.7 	"/>
	<polygon class="st1" points="422.4,781.7 424.7,786.4 426.9,791.1 422.4,791.1 417.9,791.1 420.2,786.4 	"/>
	<polygon class="st1" points="427.9,737.1 430.2,741.8 432.4,746.5 427.9,746.5 423.4,746.5 425.7,741.8 	"/>
	<polygon class="st1" points="362.8,752.7 365.1,757.4 367.3,762.1 362.8,762.1 358.3,762.1 360.6,757.4 	"/>
	<polygon class="st1" points="391.9,702.8 394.1,707.5 396.4,712.1 391.9,712.1 387.4,712.1 389.6,707.5 	"/>
	<polygon class="st1" points="382.5,803.4 384.7,808 386.9,812.7 382.5,812.7 378,812.7 380.2,808 	"/>
	<polygon class="st1" points="436.5,850.6 434.2,846 432,841.3 436.5,841.3 440.9,841.3 438.7,846 	"/>
	<polygon class="st1" points="380.1,779.2 377.9,774.6 375.6,769.9 380.1,769.9 384.6,769.9 382.3,774.6 	"/>
	<polygon class="st1" points="433.1,808 430.3,802.2 427.5,796.4 433.1,796.4 438.7,796.4 435.9,802.2 	"/>
	<polygon class="st1" points="395.3,839.4 391.4,831.4 387.6,823.3 395.3,823.3 403,823.3 399.2,831.4 	"/>
	<polygon class="st1" points="400.7,733.5 396.9,725.5 393,717.4 400.7,717.4 408.5,717.4 404.6,725.5 	"/>
</g>
<polygon class="st3" points="1641.6,888.2 1683.7,975.9 1725.7,1063.6 1641.6,1063.6 1557.5,1063.6 1599.6,975.9 "/>
<g>
	<polygon class="st2" points="659.2,751.4 531.1,1003.8 787.2,1003.8 	"/>
	<circle class="st1" cx="646.6" cy="811.3" r="1.9"/>
	<circle class="st1" cx="656.3" cy="820.1" r="2.8"/>
	<circle class="st1" cx="663.7" cy="806.8" r="0.9"/>
	<circle class="st1" cx="678.7" cy="845.3" r="1.9"/>
	<circle class="st1" cx="655.2" cy="782.4" r="2.8"/>
	<circle class="st1" cx="662.5" cy="769.1" r="0.9"/>
	<circle class="st1" cx="675" cy="800.3" r="1.9"/>
	<circle class="st1" cx="690.3" cy="854" r="2.8"/>
	<circle class="st1" cx="697.6" cy="840.7" r="0.9"/>
	<circle class="st1" cx="638" cy="850.4" r="1.9"/>
	<circle class="st1" cx="657" cy="857" r="2.8"/>
	<circle class="st1" cx="657.8" cy="841.8" r="0.9"/>
	<circle class="st1" cx="619.7" cy="857" r="0.9"/>
	<circle class="st1" cx="656.4" cy="867.5" r="1.9"/>
	<circle class="st1" cx="671.5" cy="880.7" r="2.8"/>
	<circle class="st1" cx="677.9" cy="867" r="0.9"/>
	<circle class="st1" cx="682" cy="816.2" r="1.9"/>
	<circle class="st1" cx="683.9" cy="843.3" r="0.9"/>
	<circle class="st1" cx="677.9" cy="831.3" r="0.9"/>
	<circle class="st1" cx="711.2" cy="882.2" r="1.9"/>
	<circle class="st1" cx="693.3" cy="873.1" r="2.8"/>
	<circle class="st1" cx="690.4" cy="888" r="0.9"/>
	<circle class="st1" cx="638.5" cy="871" r="2.8"/>
	<circle class="st1" cx="628.9" cy="824.7" r="1.9"/>
	<circle class="st1" cx="647.9" cy="831.3" r="2.8"/>
	<circle class="st1" cx="647.3" cy="841.8" r="1.9"/>
	<circle class="st1" cx="629.4" cy="845.3" r="2.8"/>
	<circle class="st1" cx="668" cy="814.5" r="2.8"/>
	<circle class="st1" cx="656.3" cy="789.9" r="1.9"/>
	<circle class="st1" cx="699.6" cy="844.7" r="2.8"/>
	<circle class="st1" cx="697.6" cy="836" r="0.9"/>
	<circle class="st1" cx="647.3" cy="841.1" r="1.9"/>
	<circle class="st1" cx="666.3" cy="847.7" r="2.8"/>
	<circle class="st1" cx="667.1" cy="832.5" r="0.9"/>
	<circle class="st1" cx="665.7" cy="858.2" r="1.9"/>
	<circle class="st1" cx="687.3" cy="857.7" r="0.9"/>
	<circle class="st1" cx="681.6" cy="807.9" r="1.9"/>
	<circle class="st1" cx="693.2" cy="834" r="0.9"/>
	<circle class="st1" cx="650.7" cy="822.9" r="0.9"/>
	<circle class="st1" cx="640.7" cy="811.6" r="1.9"/>
	<circle class="st1" cx="645.7" cy="856" r="2.8"/>
	<circle class="st1" cx="656.6" cy="832.5" r="1.9"/>
	<circle class="st1" cx="638.3" cy="802" r="2.8"/>
	<circle class="st1" cx="645.6" cy="788.8" r="0.9"/>
	<circle class="st1" cx="622.5" cy="861.9" r="1.9"/>
	<circle class="st1" cx="655.2" cy="774.4" r="1.9"/>
	<circle class="st1" cx="672.3" cy="836" r="2.8"/>
	<circle class="st1" cx="632.2" cy="856" r="0.9"/>
	<circle class="st1" cx="629.4" cy="833.2" r="2.8"/>
	<circle class="st1" cx="639.7" cy="823.8" r="0.9"/>
	<circle class="st1" cx="664" cy="798.1" r="1.9"/>
	<circle class="st1" cx="665.8" cy="825.3" r="0.9"/>
	<circle class="st1" cx="659.9" cy="813.2" r="0.9"/>
	<circle class="st1" cx="647.6" cy="792.7" r="2.8"/>
	<circle class="st1" cx="658" cy="806.9" r="1.9"/>
	<circle class="st1" cx="681.6" cy="826.7" r="2.8"/>
	<circle class="st1" cx="688.2" cy="818" r="0.9"/>
	<circle class="st1" cx="677" cy="854" r="2.8"/>
	<circle class="st1" cx="649" cy="814.5" r="0.9"/>
	<circle class="st1" cx="657.9" cy="762.6" r="1.9"/>
	<circle class="st1" cx="669.2" cy="839.6" r="0.9"/>
	<circle class="st1" cx="667.4" cy="788.8" r="1.9"/>
	<circle class="st1" cx="675.1" cy="816" r="0.9"/>
	<circle class="st1" cx="669.2" cy="803.9" r="0.9"/>
	<circle class="st1" cx="651.6" cy="800.1" r="2.8"/>
	<circle class="st1" cx="633.1" cy="818.9" r="1.9"/>
	<circle class="st1" cx="638.7" cy="836" r="2.8"/>
	<circle class="st1" cx="605.2" cy="874" r="2.8"/>
	<circle class="st1" cx="604.6" cy="884.5" r="1.9"/>
	<circle class="st1" cx="618.1" cy="885.9" r="2.8"/>
	<circle class="st1" cx="624.5" cy="872.1" r="0.9"/>
	<circle class="st1" cx="704.8" cy="863.8" r="1.9"/>
	<circle class="st1" cx="639.8" cy="878.3" r="2.8"/>
	<circle class="st1" cx="666.3" cy="779.6" r="0.9"/>
	<circle class="st1" cx="697.6" cy="857" r="0.9"/>
	<circle class="st1" cx="706.7" cy="872.9" r="1.9"/>
	<circle class="st1" cx="688.8" cy="863.8" r="2.8"/>
	<circle class="st1" cx="685.9" cy="878.7" r="0.9"/>
</g>
<polygon class="st2" points="1775.1,950.2 1653.2,950.2 1714.1,823.1 "/>
<path class="st6" d="M1920,917.6V1080h-783.5c117.2-41.6,231.9-73.2,340-97.1c121-26.8,233.7-44,332.4-55c15.2-1.7,30-3.2,44.4-4.6
	c11.6-1.1,22.9-2.2,34.1-3.1C1898.5,919.3,1909.4,918.4,1920,917.6z"/>
<g>
	<polygon class="st1" points="226.3,931.2 0,931.2 0,908.3 216.3,908.3 	"/>
	<polygon class="st1" points="212.3,899.2 0,899.2 0,876.3 202.3,876.3 	"/>
	<polygon class="st1" points="198.3,867.2 0,867.2 0,844.3 188.3,844.3 	"/>
	<polygon class="st1" points="184.3,835.2 0,835.2 0,812.3 174.3,812.3 	"/>
	<polygon class="st1" points="170.4,803.2 0,803.2 0,797.2 7.4,780.3 160.4,780.3 	"/>
	<polygon class="st1" points="21.4,748.3 11.4,771.2 156.4,771.2 146.4,748.3 	"/>
	<polygon class="st1" points="35.3,716.3 25.3,739.2 142.4,739.2 132.4,716.3 	"/>
	<polygon class="st1" points="49.3,684.3 41.2,703 126.6,703 118.4,684.3 	"/>
	<polygon class="st1" points="63.3,652.3 56.2,668.6 111.5,668.6 104.4,652.3 	"/>
	<polygon class="st1" points="77.3,620.3 72.3,631.7 95.4,631.7 90.4,620.3 	"/>
	<polygon class="st1" points="81.4,611 86.4,611 83.9,605.3 	"/>
</g>
<g>
	<defs>
		<polygon id="SVGID_3_" points="981.4,650 839,975.9 1123.8,975.9 		"/>
	</defs>
	<clipPath id="SVGID_4_">
		<use xlink:href="#SVGID_3_"  style="overflow:visible;"/>
	</clipPath>
	<rect x="853.8" y="644.3" class="st7" width="245.8" height="334.9"/>
	<rect x="806" y="953" class="st8" width="340" height="22.9"/>
	<rect x="806" y="921" class="st8" width="340" height="22.9"/>
	<rect x="806" y="889" class="st8" width="340" height="22.9"/>
	<rect x="806" y="857" class="st8" width="340" height="22.9"/>
	<rect x="806" y="825" class="st8" width="340" height="22.9"/>
	<rect x="806" y="793" class="st8" width="340" height="22.9"/>
	<rect x="806" y="761" class="st8" width="340" height="22.9"/>
	<rect x="806" y="729" class="st8" width="340" height="18.7"/>
	<rect x="806" y="697" class="st8" width="340" height="16.3"/>
	<rect x="806" y="665" class="st8" width="340" height="11.4"/>
	<rect x="806" y="644.3" class="st8" width="340" height="11.4"/>
</g>
<g>
	<defs>
		<polygon id="SVGID_5_" points="558.7,646.3 616.6,767.1 674.5,887.9 558.7,887.9 442.9,887.9 500.8,767.1 		"/>
	</defs>
	<clipPath id="SVGID_6_">
		<use xlink:href="#SVGID_5_"  style="overflow:visible;"/>
	</clipPath>
	<polygon class="st9" points="558.7,646.3 616.6,767.1 674.5,887.9 558.7,887.9 442.9,887.9 500.8,767.1 	"/>
	<line class="st10" x1="690" y1="876.4" x2="403.4" y2="876.4"/>
	<line class="st10" x1="690" y1="862.1" x2="403.4" y2="862.1"/>
	<line class="st10" x1="690" y1="847.7" x2="403.4" y2="847.7"/>
	<line class="st10" x1="690" y1="833.3" x2="403.4" y2="833.3"/>
	<line class="st10" x1="690" y1="818.9" x2="403.4" y2="818.9"/>
	<line class="st10" x1="690" y1="804.5" x2="403.4" y2="804.5"/>
	<line class="st10" x1="690" y1="790.1" x2="403.4" y2="790.1"/>
	<line class="st10" x1="690" y1="775.7" x2="403.4" y2="775.7"/>
	<line class="st10" x1="690" y1="761.3" x2="403.4" y2="761.3"/>
	<line class="st10" x1="690" y1="746.9" x2="403.4" y2="746.9"/>
	<line class="st10" x1="690" y1="732.5" x2="403.4" y2="732.5"/>
	<line class="st10" x1="690" y1="718.1" x2="403.4" y2="718.1"/>
	<line class="st10" x1="690" y1="703.7" x2="403.4" y2="703.7"/>
	<line class="st10" x1="690" y1="689.4" x2="403.4" y2="689.4"/>
	<line class="st10" x1="690" y1="675" x2="403.4" y2="675"/>
	<line class="st10" x1="690" y1="660.6" x2="403.4" y2="660.6"/>
</g>
<polygon class="st3" points="645.5,827.4 687.5,915.2 729.6,1002.9 645.5,1002.9 561.4,1002.9 603.4,915.2 "/>
<g>
	<polygon class="st3" points="1470.8,990.5 1392.7,836.4 1314.5,990.5 	"/>
	<circle class="st1" cx="1380.1" cy="896.3" r="1.9"/>
	<circle class="st1" cx="1389.8" cy="905" r="2.8"/>
	<circle class="st1" cx="1397.2" cy="891.8" r="0.9"/>
	<circle class="st1" cx="1412.2" cy="930.3" r="1.9"/>
	<circle class="st1" cx="1388.7" cy="867.4" r="2.8"/>
	<circle class="st1" cx="1396" cy="854.1" r="0.9"/>
	<circle class="st1" cx="1408.5" cy="885.3" r="1.9"/>
	<circle class="st1" cx="1423.8" cy="939" r="2.8"/>
	<circle class="st1" cx="1431.1" cy="925.7" r="0.9"/>
	<circle class="st1" cx="1371.5" cy="935.4" r="1.9"/>
	<circle class="st1" cx="1390.5" cy="942" r="2.8"/>
	<circle class="st1" cx="1391.3" cy="926.8" r="0.9"/>
	<circle class="st1" cx="1353.2" cy="942" r="0.9"/>
	<circle class="st1" cx="1389.9" cy="952.5" r="1.9"/>
	<circle class="st1" cx="1405" cy="965.7" r="2.8"/>
	<circle class="st1" cx="1411.5" cy="952" r="0.9"/>
	<circle class="st1" cx="1415.5" cy="901.2" r="1.9"/>
	<circle class="st1" cx="1417.4" cy="928.3" r="0.9"/>
	<circle class="st1" cx="1411.5" cy="916.3" r="0.9"/>
	<circle class="st1" cx="1444.7" cy="967.2" r="1.9"/>
	<circle class="st1" cx="1426.8" cy="958.1" r="2.8"/>
	<circle class="st1" cx="1423.9" cy="973" r="0.9"/>
	<circle class="st1" cx="1372" cy="956" r="2.8"/>
	<circle class="st1" cx="1362.4" cy="909.7" r="1.9"/>
	<circle class="st1" cx="1381.4" cy="916.3" r="2.8"/>
	<circle class="st1" cx="1380.8" cy="926.8" r="1.9"/>
	<circle class="st1" cx="1362.9" cy="930.3" r="2.8"/>
	<circle class="st1" cx="1401.5" cy="899.5" r="2.8"/>
	<circle class="st1" cx="1389.8" cy="874.9" r="1.9"/>
	<circle class="st1" cx="1433.1" cy="929.7" r="2.8"/>
	<circle class="st1" cx="1431.1" cy="921" r="0.9"/>
	<circle class="st1" cx="1380.8" cy="926.1" r="1.9"/>
	<circle class="st1" cx="1399.8" cy="932.7" r="2.8"/>
	<circle class="st1" cx="1400.6" cy="917.5" r="0.9"/>
	<circle class="st1" cx="1399.2" cy="943.2" r="1.9"/>
	<circle class="st1" cx="1420.8" cy="942.6" r="0.9"/>
	<circle class="st1" cx="1415.1" cy="892.9" r="1.9"/>
	<circle class="st1" cx="1426.7" cy="919" r="0.9"/>
	<circle class="st1" cx="1384.2" cy="907.9" r="0.9"/>
	<circle class="st1" cx="1374.2" cy="896.6" r="1.9"/>
	<circle class="st1" cx="1379.2" cy="941" r="2.8"/>
	<circle class="st1" cx="1390.1" cy="917.5" r="1.9"/>
	<circle class="st1" cx="1371.8" cy="887" r="2.8"/>
	<circle class="st1" cx="1379.1" cy="873.8" r="0.9"/>
	<circle class="st1" cx="1356" cy="946.9" r="1.9"/>
	<circle class="st1" cx="1388.7" cy="859.3" r="1.9"/>
	<circle class="st1" cx="1405.8" cy="921" r="2.8"/>
	<circle class="st1" cx="1365.7" cy="941" r="0.9"/>
	<circle class="st1" cx="1362.9" cy="918.2" r="2.8"/>
	<circle class="st1" cx="1373.2" cy="908.8" r="0.9"/>
	<circle class="st1" cx="1397.5" cy="883.1" r="1.9"/>
	<circle class="st1" cx="1399.3" cy="910.3" r="0.9"/>
	<circle class="st1" cx="1393.4" cy="898.2" r="0.9"/>
	<circle class="st1" cx="1381.1" cy="877.7" r="2.8"/>
	<circle class="st1" cx="1391.5" cy="891.8" r="1.9"/>
	<circle class="st1" cx="1415.1" cy="911.7" r="2.8"/>
	<circle class="st1" cx="1421.7" cy="903" r="0.9"/>
	<circle class="st1" cx="1410.5" cy="939" r="2.8"/>
	<circle class="st1" cx="1382.6" cy="899.5" r="0.9"/>
	<circle class="st1" cx="1391.4" cy="847.5" r="1.9"/>
	<circle class="st1" cx="1402.7" cy="924.6" r="0.9"/>
	<circle class="st1" cx="1400.9" cy="873.8" r="1.9"/>
	<circle class="st1" cx="1408.6" cy="901" r="0.9"/>
	<circle class="st1" cx="1402.7" cy="888.9" r="0.9"/>
	<circle class="st1" cx="1385.1" cy="885.1" r="2.8"/>
	<circle class="st1" cx="1366.6" cy="903.9" r="1.9"/>
	<circle class="st1" cx="1372.2" cy="921" r="2.8"/>
	<circle class="st1" cx="1338.7" cy="959" r="2.8"/>
	<circle class="st1" cx="1338.1" cy="969.5" r="1.9"/>
	<circle class="st1" cx="1351.6" cy="970.9" r="2.8"/>
	<circle class="st1" cx="1358" cy="957.1" r="0.9"/>
	<circle class="st1" cx="1438.3" cy="948.8" r="1.9"/>
	<circle class="st1" cx="1373.3" cy="963.3" r="2.8"/>
	<circle class="st1" cx="1399.8" cy="864.6" r="0.9"/>
	<circle class="st1" cx="1431.1" cy="942" r="0.9"/>
	<circle class="st1" cx="1440.2" cy="957.9" r="1.9"/>
	<circle class="st1" cx="1422.3" cy="948.8" r="2.8"/>
	<circle class="st1" cx="1419.4" cy="963.7" r="0.9"/>
</g>
<g>
	<polygon class="st1" points="932.8,903.5 783.8,903.5 858.3,750.7 	"/>
	<polygon class="st0" points="867.2,771.5 849.3,771.5 851.6,766.9 865,766.9 	"/>
	<polygon class="st0" points="872.2,781.7 844.4,781.7 846.6,777 869.9,777 	"/>
	<polygon class="st0" points="877.1,791.8 839.4,791.8 841.7,787.1 874.9,787.1 	"/>
	<polygon class="st0" points="882.1,801.9 834.5,801.9 836.7,797.3 879.8,797.3 	"/>
	<polygon class="st0" points="887,812.1 829.5,812.1 831.8,807.4 884.8,807.4 	"/>
	<polygon class="st0" points="892,822.3 824.6,822.3 826.8,817.6 889.7,817.6 	"/>
	<polygon class="st0" points="896.9,832.4 819.6,832.4 821.9,827.8 894.7,827.8 	"/>
	<polygon class="st0" points="901.9,842.5 814.7,842.5 816.9,837.9 899.6,837.9 	"/>
	<polygon class="st0" points="906.8,852.7 809.7,852.7 812,848.1 904.6,848.1 	"/>
	<polygon class="st0" points="911.8,862.9 804.8,862.9 807,858.2 909.5,858.2 	"/>
	<polygon class="st0" points="916.7,873 799.8,873 802.1,868.4 914.5,868.4 	"/>
	<polygon class="st0" points="921.7,883.2 794.9,883.2 797.2,878.5 919.4,878.5 	"/>
	<polygon class="st0" points="926.6,893.3 789.9,893.3 792.2,888.7 924.4,888.7 	"/>
	<polygon class="st1" points="932.8,903.5 926.8,903.5 924.5,898.8 858.3,763 792,898.8 789.8,903.5 783.8,903.5 858.3,750.7 	"/>
</g>
<g>
	<polygon points="968.2,922 968.8,920.7 971.8,914.7 974.5,909.2 977.4,903.1 984.3,889 991.5,874.4 994.1,869 997,862.9 
		999.6,857.5 1002.8,851 1011.1,834 1016.7,822.6 1019.3,817.2 1022.3,811.1 1024.9,805.7 1027.3,800.9 1029.6,805.5 1032.2,811 
		1035.2,817.1 1037.9,822.6 1043.5,834.2 1051.9,851.3 1054.9,857.5 1057.5,862.9 1060.5,869 1063.1,874.4 1070.1,888.7 
		1077.2,903.2 1082.2,913.4 1082.8,914.7 1085.8,920.8 1086.4,922 	"/>
	<polygon class="st1" points="1085.8,920.8 1084.6,922 1068.5,922 1064.2,917.5 1060,922 1043.8,922 1039.6,917.5 1035.3,922 
		1019.1,922 1014.9,917.5 1010.6,922 994.5,922 990.4,917.6 986.2,922 970.1,922 968.8,920.7 971.8,914.7 978.1,921.3 990.4,908.3 
		1002.5,921.3 1015,908.3 1027.2,921.3 1039.6,908.3 1051.9,921.3 1064.1,908.3 1076.6,921.3 1082.8,914.7 	"/>
	<polygon class="st1" points="990.4,900.1 1002.5,913.1 1014.9,900 1027.1,913.1 1039.5,900 1052,913.1 1064.2,900 1076.7,913.1 
		1080.2,909.3 1077.2,903.2 1076.6,903.8 1064.1,890.8 1051.9,903.8 1039.5,890.8 1027.2,903.8 1015,890.8 1002.5,903.8 
		990.4,890.8 978.1,903.8 977.4,903.1 974.5,909.2 978.1,913.1 	"/>
	<polygon class="st1" points="1002.5,895.6 1014.9,882.5 1027.1,895.6 1039.5,882.5 1052,895.6 1064.2,882.5 1070.1,888.8 
		1063.1,874.4 1051.9,886.3 1039.5,873.3 1027.2,886.3 1015,873.3 1002.5,886.3 991.4,874.4 984.3,889 990.4,882.6 	"/>
	<polygon class="st1" points="1014.9,865 1027.1,878.1 1039.5,865 1052,878.1 1060.5,869 1057.5,862.9 1051.9,868.8 1039.5,855.8 
		1027.2,868.8 1015,855.8 1002.5,868.8 997,862.9 994.1,869 1002.5,878.1 	"/>
	<polygon class="st1" points="1014.9,847.5 1027.1,860.6 1039.5,847.5 1052,860.6 1054.9,857.5 1051.9,851.3 1039.5,838.3 
		1027.2,851.3 1015,838.3 1002.8,851 999.6,857.6 1002.5,860.6 	"/>
	<polygon class="st1" points="1027.1,843.1 1039.5,830 1043.6,834.2 1037.9,822.6 1027.2,833.8 1016.7,822.6 1011.1,834 1014.9,830 
			"/>
	<polygon class="st1" points="1035.2,817.1 1032.2,811 1027.2,816.3 1022.3,811.1 1019.3,817.2 1027.1,825.6 	"/>
	<polygon class="st1" points="1029.6,805.5 1027.3,800.9 1024.9,805.7 1027.1,808.1 	"/>
</g>
<polygon class="st2" points="937.1,1002.4 861.6,1002.4 899.4,923.6 "/>
<polygon class="st2" points="1182,946.8 1080.2,946.8 1131.1,840.7 "/>
<g>
	<polygon class="st2" points="176.5,883.8 187.9,896 199.5,883.7 211,896 222.6,883.7 234.3,896 245.7,883.7 257.4,896 266,886.8 
		263.2,881.1 257.3,887.3 245.7,875.1 234.2,887.3 222.6,875.1 211,887.3 199.6,875.1 187.9,887.3 176.6,875.1 165,887.3 159.1,881 
		156.3,886.7 165,896 	"/>
	<polygon class="st2" points="176.5,867.4 187.9,879.6 199.5,867.3 211,879.6 222.6,867.3 234.3,879.6 245.7,867.3 257.4,879.6 
		260.7,876 257.9,870.3 257.3,870.9 245.7,858.7 234.2,870.9 222.6,858.7 211,870.9 199.6,858.7 187.9,870.9 176.6,858.7 165,870.9 
		164.4,870.2 161.6,875.9 165,879.6 	"/>
	<polygon class="st2" points="187.9,863.2 199.5,850.9 211,863.2 222.6,850.9 234.3,863.2 245.7,850.9 251.3,856.8 244.7,843.3 
		234.2,854.5 222.6,842.3 211,854.5 199.6,842.3 187.9,854.5 177.5,843.3 170.9,857 176.5,851 	"/>
	<polygon class="st2" points="199.5,834.5 211,846.8 222.6,834.5 234.3,846.8 242.3,838.2 239.5,832.5 234.2,838.1 222.6,825.9 
		211,838.1 199.6,825.9 187.9,838.1 182.8,832.5 180,838.3 187.9,846.8 	"/>
	<polygon class="st2" points="199.5,818.1 211,830.4 222.6,818.1 234.3,830.4 237,827.4 234.2,821.6 222.6,809.5 211,821.7 
		199.6,809.5 188.2,821.4 185.2,827.5 187.9,830.4 	"/>
	<polygon class="st2" points="211,813.9 222.6,801.7 226.4,805.7 221.1,794.7 211,805.3 201.2,794.8 196,805.4 199.5,801.7 	"/>
	<polygon class="st2" points="218.6,789.6 215.8,783.9 211,788.9 206.4,784 203.7,789.7 211,797.5 	"/>
	<polygon class="st2" points="213.3,778.8 211.1,774.4 208.9,778.9 211,781.1 	"/>
</g>
<g>
	<polygon class="st2" points="776.3,908.2 787.7,920.4 799.3,908.1 810.8,920.4 822.4,908.1 834.1,920.4 845.5,908.1 857.2,920.4 
		865.7,911.2 863,905.5 857.1,911.7 845.5,899.5 834,911.7 822.4,899.5 810.8,911.7 799.4,899.5 787.7,911.7 776.4,899.5 
		764.8,911.7 758.9,905.4 756.1,911.1 764.8,920.4 	"/>
	<polygon class="st2" points="776.3,891.8 787.7,904 799.3,891.7 810.8,904 822.4,891.7 834.1,904 845.5,891.7 857.2,904 
		860.5,900.4 857.7,894.7 857.1,895.3 845.5,883.1 834,895.3 822.4,883.1 810.8,895.3 799.4,883.1 787.7,895.3 776.4,883.1 
		764.8,895.3 764.2,894.6 761.4,900.3 764.8,904 	"/>
	<polygon class="st2" points="787.7,887.6 799.3,875.3 810.8,887.6 822.4,875.3 834.1,887.6 845.5,875.3 851.1,881.2 844.5,867.7 
		834,878.9 822.4,866.7 810.8,878.9 799.4,866.7 787.7,878.9 777.3,867.7 770.6,881.4 776.3,875.4 	"/>
	<polygon class="st2" points="799.3,858.9 810.8,871.2 822.4,858.9 834.1,871.2 842.1,862.6 839.3,856.9 834,862.5 822.4,850.3 
		810.8,862.5 799.4,850.3 787.7,862.5 782.6,856.9 779.8,862.7 787.7,871.2 	"/>
	<polygon class="st2" points="799.3,842.5 810.8,854.8 822.4,842.5 834.1,854.8 836.8,851.8 834,846 822.4,833.9 810.8,846.1 
		799.4,833.9 788,845.8 785,851.9 787.7,854.8 	"/>
	<polygon class="st2" points="810.8,838.3 822.4,826.1 826.2,830.1 820.9,819.1 810.8,829.7 801,819.2 795.8,829.8 799.3,826.1 	"/>
	<polygon class="st2" points="818.3,814 815.6,808.3 810.8,813.3 806.2,808.4 803.5,814.1 810.8,821.9 	"/>
	<polygon class="st2" points="813.1,803.2 810.9,798.8 808.7,803.3 810.8,805.5 	"/>
</g>
<path class="st1" d="M1920,1080L1920,1080L0,1080V890.9c231.4-17.2,715.2-32.6,1342.5,68.9c44,7.1,88.7,14.8,134,23.1
	C1618.2,1008.9,1766.4,1040.8,1920,1080z"/>
<circle class="st11" cx="467.7" cy="165.3" r="6.4"/>
<circle class="st11" cx="505.5" cy="203.1" r="3.2"/>
<circle class="st11" cx="475.5" cy="210.5" r="4.2"/>
<circle class="st11" cx="551.1" cy="119.6" r="2.1"/>
<circle class="st11" cx="602.1" cy="190.1" r="6.4"/>
<circle class="st12" cx="651.5" cy="210.4" r="3.2"/>
<circle class="st12" cx="626.7" cy="228.8" r="4.2"/>
<circle class="st12" cx="661.3" cy="115.7" r="2.1"/>
<circle class="st1" cx="397" cy="240.3" r="6.4"/>
<circle class="st1" cx="349.2" cy="216.4" r="3.2"/>
<circle class="st1" cx="375.3" cy="200" r="4.2"/>
<circle class="st1" cx="332.4" cy="310.1" r="2.1"/>
<circle class="st1" cx="243.7" cy="228.6" r="6.4"/>
<circle class="st1" cx="77.5" cy="45.2" r="6.4"/>
<circle class="st1" cx="53.6" cy="93" r="3.2"/>
<circle class="st1" cx="37.1" cy="66.9" r="4.2"/>
<circle class="st1" cx="69.2" cy="191.8" r="6.4"/>
<circle class="st1" cx="231.4" cy="280.6" r="3.2"/>
<circle class="st1" cx="209.4" cy="259" r="4.2"/>
<circle class="st1" cx="229.1" cy="348.7" r="2.1"/>
<circle class="st1" cx="73.1" cy="310.8" r="6.4"/>
<circle class="st1" cx="47.3" cy="357.6" r="3.2"/>
<circle class="st1" cx="31.9" cy="330.8" r="4.2"/>
<circle class="st1" cx="51.8" cy="427.5" r="2.1"/>
<circle class="st12" cx="851.1" cy="367" r="6.4"/>
<circle class="st12" cx="728.5" cy="347.7" r="3.2"/>
<circle class="st12" cx="758.5" cy="340.3" r="4.2"/>
<circle class="st12" cx="682.9" cy="431.2" r="2.1"/>
<circle class="st12" cx="669.4" cy="317.8" r="6.4"/>
<circle class="st11" cx="582.5" cy="340.4" r="3.2"/>
<circle class="st11" cx="607.3" cy="322" r="4.2"/>
<circle class="st11" cx="572.7" cy="435.1" r="2.1"/>
<circle class="st12" cx="767" cy="220.5" r="6.4"/>
<circle class="st12" cx="814.8" cy="244.3" r="3.2"/>
<circle class="st12" cx="788.8" cy="260.8" r="4.2"/>
<circle class="st1" cx="267.1" cy="443.2" r="6.4"/>
<circle class="st1" cx="304.9" cy="481" r="3.2"/>
<circle class="st1" cx="274.9" cy="488.3" r="4.2"/>
<circle class="st1" cx="350.5" cy="397.4" r="2.1"/>
<circle class="st1" cx="401.4" cy="468" r="6.4"/>
<circle class="st11" cx="450.9" cy="488.3" r="3.2"/>
<circle class="st11" cx="426.1" cy="506.6" r="4.2"/>
<circle class="st11" cx="460.7" cy="393.6" r="2.1"/>
<circle class="st1" cx="196.4" cy="518.2" r="6.4"/>
<circle class="st11" cx="515.1" cy="391.5" r="6.4"/>
<circle class="st1" cx="122.1" cy="158.9" r="3.2"/>
<circle class="st1" cx="136" cy="410.8" r="4.2"/>
<circle class="st1" cx="468.8" cy="595.7" r="6.4"/>
<circle class="st1" cx="381.9" cy="618.2" r="3.2"/>
<circle class="st1" cx="406.7" cy="599.9" r="4.2"/>
<circle class="st11" cx="566.4" cy="498.3" r="6.4"/>
<circle class="st11" cx="614.2" cy="522.2" r="3.2"/>
<circle class="st11" cx="588.1" cy="538.7" r="4.2"/>
<circle class="st12" cx="901.7" cy="240.6" r="2.1"/>
<circle class="st1" cx="1103.3" cy="671.2" r="6.4"/>
<circle class="st1" cx="1053.9" cy="650.9" r="3.2"/>
<circle class="st1" cx="1078.6" cy="632.6" r="4.2"/>
<circle class="st12" cx="854.3" cy="494.3" r="6.4"/>
<circle class="st12" cx="976.8" cy="513.7" r="3.2"/>
<circle class="st12" cx="946.9" cy="521" r="4.2"/>
<circle class="st12" cx="1022.5" cy="430.1" r="2.1"/>
<circle class="st12" cx="1035.9" cy="543.5" r="6.4"/>
<circle class="st12" cx="761.4" cy="63.8" r="6.4"/>
<circle class="st12" cx="768.5" cy="549.9" r="3.2"/>
<circle class="st12" cx="714.8" cy="593.6" r="4.2"/>
<circle class="st12" cx="790.4" cy="502.7" r="2.1"/>
<circle class="st12" cx="803.8" cy="616" r="6.4"/>
<circle class="st12" cx="1122.8" cy="520.9" r="3.2"/>
<circle class="st12" cx="1098.1" cy="539.3" r="4.2"/>
<circle class="st12" cx="1132.6" cy="426.3" r="2.1"/>
<circle class="st12" cx="936.2" cy="400.7" r="6.4"/>
<circle class="st13" cx="890.5" cy="617" r="3.2"/>
<circle class="st12" cx="916.6" cy="600.5" r="4.2"/>
<circle class="st13" cx="771.7" cy="636.7" r="2.1"/>
<circle class="st12" cx="983.6" cy="318.7" r="6.4"/>
<circle class="st12" cx="1009.5" cy="272" r="3.2"/>
<circle class="st12" cx="1024.9" cy="298.8" r="4.2"/>
<circle class="st12" cx="1004.9" cy="202.1" r="2.1"/>
<circle class="st1" cx="1595.5" cy="51.7" r="6.4"/>
<circle class="st1" cx="1633.3" cy="89.5" r="3.2"/>
<circle class="st1" cx="1603.3" cy="96.8" r="4.2"/>
<circle class="st1" cx="1678.9" cy="5.9" r="2.1"/>
<circle class="st1" cx="1729.9" cy="76.5" r="6.4"/>
<circle class="st1" cx="1779.3" cy="96.8" r="3.2"/>
<circle class="st12" cx="940.4" cy="72.1" r="4.2"/>
<circle class="st1" cx="1789.1" cy="2.1" r="2.1"/>
<circle class="st1" cx="239.8" cy="103.6" r="6.4"/>
<circle class="st1" cx="323.2" cy="57.9" r="2.1"/>
<circle class="st1" cx="374.2" cy="128.4" r="6.4"/>
<circle class="st11" cx="433.4" cy="54" r="2.1"/>
<circle class="st12" cx="983.1" cy="161.1" r="6.4"/>
<circle class="st12" cx="921" cy="165.3" r="4.2"/>
<circle class="st12" cx="1080.7" cy="63.8" r="6.4"/>
<circle class="st12" cx="1128.5" cy="87.6" r="3.2"/>
<circle class="st12" cx="1102.4" cy="104.1" r="4.2"/>
<circle class="st12" cx="1215.3" cy="83.9" r="2.1"/>
<circle class="st14" cx="1297.3" cy="162" r="6.4"/>
<circle class="st14" cx="1323.2" cy="115.3" r="3.2"/>
<circle class="st14" cx="1318.6" cy="45.4" r="2.1"/>
<circle class="st14" cx="1389.7" cy="165.3" r="6.4"/>
<circle class="st14" cx="1427.5" cy="203.1" r="3.2"/>
<circle class="st14" cx="1397.6" cy="210.5" r="4.2"/>
<circle class="st1" cx="1473.1" cy="119.6" r="2.1"/>
<circle class="st1" cx="1524.1" cy="190.1" r="6.4"/>
<circle class="st1" cx="1573.5" cy="210.4" r="3.2"/>
<circle class="st1" cx="1548.7" cy="228.8" r="4.2"/>
<circle class="st1" cx="1583.3" cy="115.7" r="2.1"/>
<circle class="st1" cx="1567.1" cy="524.6" r="6.4"/>
<circle class="st1" cx="1638.8" cy="572.1" r="3.2"/>
<circle class="st1" cx="1608.8" cy="579.5" r="4.2"/>
<circle class="st1" cx="1684.4" cy="488.6" r="2.1"/>
<circle class="st1" cx="1735.4" cy="559.2" r="6.4"/>
<circle class="st1" cx="1784.8" cy="579.4" r="3.2"/>
<circle class="st1" cx="1794.6" cy="484.8" r="2.1"/>
<circle class="st12" cx="1220.8" cy="566.6" r="2.1"/>
<circle class="st14" cx="1328.7" cy="598" r="3.2"/>
<circle class="st14" cx="1324.1" cy="528" r="2.1"/>
<circle class="st1" cx="1588.9" cy="598.4" r="2.1"/>
<circle class="st14" cx="1319" cy="240.3" r="6.4"/>
<circle class="st14" cx="1271.2" cy="216.4" r="3.2"/>
<circle class="st14" cx="1297.3" cy="200" r="4.2"/>
<circle class="st12" cx="1254.4" cy="310.1" r="2.1"/>
<circle class="st12" cx="1172.4" cy="232" r="6.4"/>
<circle class="st12" cx="1146.5" cy="278.8" r="3.2"/>
<circle class="st12" cx="1131.2" cy="252" r="4.2"/>
<circle class="st12" cx="1151.1" cy="348.7" r="2.1"/>
<circle class="st1" cx="1773.1" cy="367" r="6.4"/>
<circle class="st1" cx="1650.5" cy="347.7" r="3.2"/>
<circle class="st1" cx="1680.5" cy="340.3" r="4.2"/>
<circle class="st1" cx="1604.9" cy="431.2" r="2.1"/>
<circle class="st1" cx="1591.5" cy="317.8" r="6.4"/>
<circle class="st1" cx="1504.5" cy="340.4" r="3.2"/>
<circle class="st1" cx="1529.3" cy="322" r="4.2"/>
<circle class="st1" cx="1494.7" cy="435.1" r="2.1"/>
<circle class="st1" cx="1689.1" cy="220.5" r="6.4"/>
<circle class="st1" cx="1736.9" cy="244.3" r="3.2"/>
<circle class="st1" cx="1710.8" cy="260.8" r="4.2"/>
<circle class="st14" cx="1275.5" cy="372.5" r="2.1"/>
<circle class="st14" cx="1357.4" cy="450.6" r="6.4"/>
<circle class="st14" cx="1383.3" cy="403.9" r="3.2"/>
<circle class="st1" cx="1839.9" cy="224.6" r="4.2"/>
<circle class="st14" cx="1378.7" cy="333.9" r="2.1"/>
</svg>
